<svg width="19" height="18" viewBox="0 0 19 18" fill="none" xmlns="http://www.w3.org/2000/svg">
<path d="M4.75781 4.5H17.7578C17.7948 4.50005 18.7578 4.50127 18.7578 5.5L17.7578 11.5C17.6688 11.991 17.3287 12.5 16.8221 12.5H6.75781L6.85288 13.7985C6.92205 14.1291 7.21502 14.5 7.54926 14.5H16.3644C16.4021 14.5 16.4386 14.5054 16.4736 14.5155C17.1989 14.6204 17.7578 15.2462 17.7578 16C17.7578 16.8271 17.0849 17.5 16.2578 17.5C15.4307 17.5 14.7578 16.8271 14.7578 16C14.7578 15.8248 14.788 15.6565 14.8435 15.5H8.67215C8.72762 15.6564 8.75781 15.8248 8.75781 16C8.75781 16.8271 8.08492 17.5 7.25781 17.5C6.4307 17.5 5.75781 16.8271 5.75781 16C5.75781 15.5183 5.98601 15.089 6.33997 14.8143C6.15328 14.568 6.018 14.2794 5.95743 13.9905L5.56637 12.1269L2.75781 1.5H1.21543C0.962636 1.5 0.757812 1.21822 0.757812 0.962647C0.757812 0.707075 0.962636 0.5 1.21543 0.5H3.31952C3.53002 0.5 3.7134 0.645345 3.76384 0.852063L4.75781 4.5Z" fill="white"/>
</svg>
